(Note ON@:0 CHNL: 0 KEY: 64 VELOCITY: 72)
(Note OFF@:16 CHNL: 0 KEY: 64 VELOCITY: 72)
(Note ON@:0 CHNL: 0 KEY: 55 VELOCITY: 70)
(Note OFF@:96 CHNL: 0 KEY: 55 VELOCITY: 70)
(Note ON@:32 CHNL: 0 KEY: 62 VELOCITY: 72)
(Note OFF@:48 CHNL: 0 KEY: 62 VELOCITY: 72)
(Note ON@:64 CHNL: 0 KEY: 60 VELOCITY: 71)
(Note OFF@:80 CHNL: 0 KEY: 60 VELOCITY: 71)
(Note ON@:96 CHNL: 0 KEY: 62 VELOCITY: 79)
(Note OFF@:112 CHNL: 0 KEY: 62 VELOCITY: 79)
(Note ON@:128 CHNL: 0 KEY: 55 VELOCITY: 79)
(Note OFF@:224 CHNL: 0 KEY: 55 VELOCITY: 79)
(Note ON@:128 CHNL: 0 KEY: 64 VELOCITY: 85)
(Note OFF@:144 CHNL: 0 KEY: 64 VELOCITY: 85)
(Note ON@:160 CHNL: 0 KEY: 64 VELOCITY: 78)
(Note OFF@:176 CHNL: 0 KEY: 64 VELOCITY: 78)
(Note ON@:192 CHNL: 0 KEY: 64 VELOCITY: 74)
(Note OFF@:224 CHNL: 0 KEY: 64 VELOCITY: 74)
(Note ON@:256 CHNL: 0 KEY: 55 VELOCITY: 77)
(Note OFF@:368 CHNL: 0 KEY: 55 VELOCITY: 77)
(Note ON@:256 CHNL: 0 KEY: 62 VELOCITY: 75)
(Note OFF@:272 CHNL: 0 KEY: 62 VELOCITY: 75)
(Note ON@:288 CHNL: 0 KEY: 62 VELOCITY: 77)
(Note OFF@:304 CHNL: 0 KEY: 62 VELOCITY: 77)
(Note ON@:320 CHNL: 0 KEY: 62 VELOCITY: 75)
(Note OFF@:368 CHNL: 0 KEY: 62 VELOCITY: 75)
(Note ON@:384 CHNL: 0 KEY: 55 VELOCITY: 79)
(Note OFF@:400 CHNL: 0 KEY: 55 VELOCITY: 79)
(Note ON@:384 CHNL: 0 KEY: 64 VELOCITY: 82)
(Note OFF@:400 CHNL: 0 KEY: 64 VELOCITY: 82)
(Note ON@:416 CHNL: 0 KEY: 67 VELOCITY: 84)
(Note OFF@:432 CHNL: 0 KEY: 67 VELOCITY: 84)
(Note ON@:448 CHNL: 0 KEY: 67 VELOCITY: 75)
(Note OFF@:496 CHNL: 0 KEY: 67 VELOCITY: 75)
(Note ON@:512 CHNL: 0 KEY: 55 VELOCITY: 78)
(Note OFF@:624 CHNL: 0 KEY: 55 VELOCITY: 78)
(Note ON@:512 CHNL: 0 KEY: 64 VELOCITY: 73)
(Note OFF@:528 CHNL: 0 KEY: 64 VELOCITY: 73)
(Note ON@:544 CHNL: 0 KEY: 62 VELOCITY: 69)
(Note OFF@:560 CHNL: 0 KEY: 62 VELOCITY: 69)
(Note ON@:576 CHNL: 0 KEY: 60 VELOCITY: 71)
(Note OFF@:592 CHNL: 0 KEY: 60 VELOCITY: 71)
(Note ON@:608 CHNL: 0 KEY: 62 VELOCITY: 80)
(Note OFF@:624 CHNL: 0 KEY: 62 VELOCITY: 80)
(Note ON@:640 CHNL: 0 KEY: 55 VELOCITY: 79)
(Note OFF@:752 CHNL: 0 KEY: 55 VELOCITY: 79)
(Note ON@:640 CHNL: 0 KEY: 64 VELOCITY: 84)
(Note OFF@:656 CHNL: 0 KEY: 64 VELOCITY: 84)
(Note ON@:672 CHNL: 0 KEY: 64 VELOCITY: 76)
(Note OFF@:688 CHNL: 0 KEY: 64 VELOCITY: 76)
(Note ON@:704 CHNL: 0 KEY: 64 VELOCITY: 74)
(Note OFF@:720 CHNL: 0 KEY: 64 VELOCITY: 74)
(Note ON@:736 CHNL: 0 KEY: 64 VELOCITY: 77)
(Note OFF@:752 CHNL: 0 KEY: 64 VELOCITY: 77)
(Note ON@:768 CHNL: 0 KEY: 55 VELOCITY: 78)
(Note OFF@:880 CHNL: 0 KEY: 55 VELOCITY: 78)
(Note ON@:768 CHNL: 0 KEY: 62 VELOCITY: 75)
(Note OFF@:784 CHNL: 0 KEY: 62 VELOCITY: 75)
(Note ON@:800 CHNL: 0 KEY: 62 VELOCITY: 74)
(Note OFF@:816 CHNL: 0 KEY: 62 VELOCITY: 74)
(Note ON@:832 CHNL: 0 KEY: 64 VELOCITY: 81)
(Note OFF@:848 CHNL: 0 KEY: 64 VELOCITY: 81)
(Note ON@:864 CHNL: 0 KEY: 62 VELOCITY: 70)
(Note OFF@:880 CHNL: 0 KEY: 62 VELOCITY: 70)
(Note ON@:896 CHNL: 0 KEY: 52 VELOCITY: 72)
(Note OFF@:1008 CHNL: 0 KEY: 52 VELOCITY: 72)
(Note ON@:896 CHNL: 0 KEY: 60 VELOCITY: 73)
(Note OFF@:1008 CHNL: 0 KEY: 60 VELOCITY: 73)